<svg id="a1952b31-f777-41e7-8d8c-a32ce9c7f830" data-name="Vrstva 1" xmlns="http://www.w3.org/2000/svg" viewBox="0 0 595.28 841.89"><defs><style>.a408cbd8-a48c-4f46-954c-67cd11c17001{fill:#12130f;}</style></defs><path class="a408cbd8-a48c-4f46-954c-67cd11c17001" d="M400.55,474.92q0-18.24-.11-36.47c-.1-20.85-10.37-35.08-30.35-40.91a70.47,70.47,0,0,0-21.89-3c-39.57,1.5-79.12,3.48-118.66,5.48-21.34,1.08-34.24,13.81-34.6,35.12l-.22,39.75A103,103,0,0,0,290,577.54c2.52.19,5.07.31,7.64.31,2.79,0,5.55-.14,8.29-.36A102,102,0,0,0,343.59,567a103.74,103.74,0,0,0,30.08-22.75,102.52,102.52,0,0,0,26.88-68.09ZM313.22,444l35.53,6.14c1,.18,2.07.43,3.11.62,11.63,2.1,11.81,2.12,10.62,13.85-.89,8.8-2.46,18.1-12.33,21s-19.34.34-26.66-7.48C314.63,468.71,312.67,457.17,313.22,444ZM210.14,429c1.72-7.71,7.83-14,15.78-14.45,28.3-1.63,56.61-2.82,86.42-4.24-17,20.35-16.11,41.74-8.63,64.58a39.36,39.36,0,0,1-4.7-.72c-23-6.57-46-13.09-68.92-19.88a50,50,0,0,1-12-5.59C210.56,444.06,208.22,437.71,210.14,429Zm175.18,45.89a87.31,87.31,0,0,1-24.53,60.73,88.21,88.21,0,0,1-21.5,16.41A87.68,87.68,0,0,1,210,476.31c0-.43,0-.86,0-1.3,0,0,.05-7.89.05-12.42,31.78,9.61,63.61,19.45,95.58,28.81,12.31,3.61,24.79,7.49,37.45,8.84,15.6,1.65,26.06-6.57,31-21.62a72.14,72.14,0,0,0,2.21-35.13c-.28-1.59-2.62-3.71-4.32-4-17.21-3.43-34.49-6.53-51.75-9.74-.82-.15-1.62-.43-3.23-.87,5.93-10.61,14.45-18.06,25.86-19.51,8.51-1.08,17.75.48,26.18,2.71,10.28,2.72,16.43,12.31,16.48,23.08q.09,19.9.07,39.8Z"/><path class="a408cbd8-a48c-4f46-954c-67cd11c17001" d="M185,492.36a29.71,29.71,0,0,1,0-59.42h4.91a45.84,45.84,0,0,1,3.35-15.26H185a45,45,0,1,0,0,89.94h9.7a105.59,105.59,0,0,1-3.65-15.26Z"/><path class="a408cbd8-a48c-4f46-954c-67cd11c17001" d="M275.44,264a25.08,25.08,0,0,1,8.46,8.4,33.72,33.72,0,0,1,2.82,5.44c.4.95.72,1.94,1.07,2.93s.57,2,.76,3.08a28.72,28.72,0,0,1,.66,6.57,26,26,0,0,1-1,7.08,32.09,32.09,0,0,1-2.68,6.37c-1,1.89-2.09,3.5-3,5a54.6,54.6,0,0,0-4.45,7.53l-.39.87c-.08.23-.19.45-.29.7l-.28.82-.27.92c-.33,1.28-.58,2.74-.81,4.26-.43,3.06-.69,6.41-.85,9.93s-.25,7.23-.6,11.31a32.38,32.38,0,0,1-7.73-9.11,36.86,36.86,0,0,1-4.4-11.37,32.13,32.13,0,0,1-.64-6.55l.08-1.76c.05-.61.14-1.23.22-1.84s.23-1.28.38-1.92l.48-1.69a34.18,34.18,0,0,1,2.67-6.26,54.44,54.44,0,0,1,3.26-5.13,80.66,80.66,0,0,0,5.05-7.35c.3-.53.53-1.05.79-1.6s.47-1.16.64-1.82a29.65,29.65,0,0,0,.92-4.23,53.63,53.63,0,0,0,.49-9.72c-.06-1.72-.2-3.45-.38-5.26S275.81,266,275.44,264Z"/><path class="a408cbd8-a48c-4f46-954c-67cd11c17001" d="M297.47,282.05a27.45,27.45,0,0,1,5.32,4.68,38.06,38.06,0,0,1,4.19,5.84,42.55,42.55,0,0,1,3.13,6.58c.45,1.14.79,2.33,1.17,3.51s.62,2.42.82,3.67a33.66,33.66,0,0,1-.7,16,37.72,37.72,0,0,1-3.2,7.43c-1.23,2.24-2.53,4.17-3.7,6s-2.26,3.42-3.2,5a38.91,38.91,0,0,0-2.38,4.61l-.49,1.15c-.1.33-.25.64-.37,1l-.34,1.11-.3,1.21c-.37,1.68-.61,3.53-.84,5.45a118,118,0,0,0-.45,12.27c0,4.31.22,8.74.18,13.55a42.7,42.7,0,0,1-8.51-11.35A47,47,0,0,1,283,356a38.86,38.86,0,0,1-.63-7.73l.11-2.06c.08-.71.18-1.42.28-2.13s.29-1.47.46-2.21l.57-2a42.1,42.1,0,0,1,3.17-7.34,72.12,72.12,0,0,1,3.9-6.12c2.64-3.71,4.83-6.58,6.23-9.41.38-.71.66-1.42,1-2.16s.54-1.56.73-2.41a33.3,33.3,0,0,0,1-5.41,62.9,62.9,0,0,0,0-12.05c-.18-2.09-.48-4.19-.83-6.35S298.07,284.33,297.47,282.05Z"/></svg>