<svg id="ecacc5a8-6704-4148-8b12-36cb6106599b" data-name="Vrstva 1" xmlns="http://www.w3.org/2000/svg" viewBox="0 0 595.28 841.89"><defs><style>.a8e8eb94-6b3f-4a63-9db9-db044f06013d{fill:#12130f;}</style></defs><path class="a8e8eb94-6b3f-4a63-9db9-db044f06013d" d="M400.55,346.77q0-18.24-.11-36.47c-.1-20.85-10.37-35.08-30.35-40.91a70.47,70.47,0,0,0-21.89-3c-39.57,1.5-79.12,3.48-118.66,5.48C208.2,273,195.3,285.71,194.94,307l-.22,39.75A103,103,0,0,0,290,449.39c2.52.19,5.07.31,7.64.31,2.79,0,5.55-.14,8.29-.36a102,102,0,0,0,37.65-10.49,103.74,103.74,0,0,0,30.08-22.75A102.52,102.52,0,0,0,400.55,348Zm-87.33-30.93L348.75,322c1,.18,2.07.43,3.11.62,11.63,2.1,11.81,2.12,10.62,13.85-.89,8.8-2.46,18.1-12.33,21s-19.34.34-26.66-7.48C314.63,340.56,312.67,329,313.22,315.84Zm-103.08-15c1.72-7.71,7.83-14,15.78-14.45,28.3-1.63,56.61-2.82,86.42-4.24-17,20.35-16.11,41.74-8.63,64.58a39.36,39.36,0,0,1-4.7-.72c-23-6.57-46-13.09-68.92-19.88a50,50,0,0,1-12-5.59C210.56,315.91,208.22,309.56,210.14,300.88Zm175.18,45.89a87.31,87.31,0,0,1-24.53,60.73,88.21,88.21,0,0,1-21.5,16.41A87.68,87.68,0,0,1,210,348.16c0-.43,0-.86,0-1.3,0,0,.05-7.89.05-12.42,31.78,9.61,63.61,19.45,95.58,28.81,12.31,3.61,24.79,7.49,37.45,8.84,15.6,1.65,26.06-6.57,31-21.62a72.14,72.14,0,0,0,2.21-35.13c-.28-1.59-2.62-3.71-4.32-4-17.21-3.43-34.49-6.53-51.75-9.74-.82-.15-1.62-.43-3.23-.87,5.93-10.61,14.45-18.06,25.86-19.51,8.51-1.08,17.75.48,26.18,2.71,10.28,2.72,16.43,12.31,16.48,23.08q.09,19.9.07,39.8Z"/><path class="a8e8eb94-6b3f-4a63-9db9-db044f06013d" d="M185,364.21a29.71,29.71,0,0,1,0-59.42h4.91a45.84,45.84,0,0,1,3.35-15.26H185a45,45,0,1,0,0,89.94h9.7a105.59,105.59,0,0,1-3.65-15.26Z"/><path class="a8e8eb94-6b3f-4a63-9db9-db044f06013d" d="M275.44,135.89a25.08,25.08,0,0,1,8.46,8.4,33.72,33.72,0,0,1,2.82,5.44c.4,1,.72,1.94,1.07,2.93s.57,2,.76,3.08a28.72,28.72,0,0,1,.66,6.57,26,26,0,0,1-1,7.08,32.09,32.09,0,0,1-2.68,6.37c-1,1.89-2.09,3.5-3,5a54.6,54.6,0,0,0-4.45,7.53l-.39.87c-.08.23-.19.45-.29.7l-.28.82-.27.92c-.33,1.28-.58,2.74-.81,4.26-.43,3.06-.69,6.41-.85,9.93s-.25,7.23-.6,11.31a32.38,32.38,0,0,1-7.73-9.11,36.86,36.86,0,0,1-4.4-11.37,32.13,32.13,0,0,1-.64-6.55l.08-1.76c.05-.61.14-1.23.22-1.84s.23-1.28.38-1.92l.48-1.69a34.18,34.18,0,0,1,2.67-6.26,54.44,54.44,0,0,1,3.26-5.13,80.66,80.66,0,0,0,5.05-7.35c.3-.53.53-1.05.79-1.6s.47-1.16.64-1.82a29.65,29.65,0,0,0,.92-4.23,53.63,53.63,0,0,0,.49-9.72c-.06-1.72-.2-3.45-.38-5.26S275.81,137.85,275.44,135.89Z"/><path class="a8e8eb94-6b3f-4a63-9db9-db044f06013d" d="M297.47,153.9a27.45,27.45,0,0,1,5.32,4.68,38.06,38.06,0,0,1,4.19,5.84,42.55,42.55,0,0,1,3.13,6.58c.45,1.14.79,2.33,1.17,3.51s.62,2.42.82,3.67a33.66,33.66,0,0,1-.7,16,37.72,37.72,0,0,1-3.2,7.43c-1.23,2.24-2.53,4.17-3.7,6s-2.26,3.42-3.2,5a38.91,38.91,0,0,0-2.38,4.61l-.49,1.15c-.1.33-.25.64-.37,1l-.34,1.11-.3,1.21c-.37,1.68-.61,3.53-.84,5.45a118,118,0,0,0-.45,12.27c0,4.3.22,8.74.18,13.55a42.7,42.7,0,0,1-8.51-11.35A47,47,0,0,1,283,227.84a38.86,38.86,0,0,1-.63-7.73l.11-2.06c.08-.71.18-1.42.28-2.13s.29-1.47.46-2.21l.57-2A42.1,42.1,0,0,1,287,204.4a72.12,72.12,0,0,1,3.9-6.12c2.64-3.71,4.83-6.58,6.23-9.41.38-.71.66-1.42,1-2.16s.54-1.56.73-2.41a33.3,33.3,0,0,0,1-5.41,62.9,62.9,0,0,0,0-12c-.18-2.09-.48-4.19-.83-6.35S298.07,156.18,297.47,153.9Z"/><path class="a8e8eb94-6b3f-4a63-9db9-db044f06013d" d="M113.41,575.62V510.26h12l.44,10.29-2.27-.78a9.7,9.7,0,0,1,2.92-5.06,18.55,18.55,0,0,1,6-3.84,19.38,19.38,0,0,1,7.5-1.49,19,19,0,0,1,10.69,3.06A21.24,21.24,0,0,1,158,520.9a27.61,27.61,0,0,1,2.7,12.48A27,27,0,0,1,158,545.6a21.4,21.4,0,0,1-7.42,8.51,19.63,19.63,0,0,1-18.28,1.53,20.53,20.53,0,0,1-6.16-4A10.42,10.42,0,0,1,123,546.3l2.88-1.22v30.54Zm23.74-29.06a10.94,10.94,0,0,0,6.07-1.66,11.08,11.08,0,0,0,4-4.67,15.66,15.66,0,0,0,1.44-6.85,15.87,15.87,0,0,0-1.44-6.93,11.08,11.08,0,0,0-4-4.67,10.94,10.94,0,0,0-6.07-1.66,11.14,11.14,0,0,0-6.11,1.66,11.32,11.32,0,0,0-4.1,4.62,15.44,15.44,0,0,0-1.48,7,15.26,15.26,0,0,0,1.48,6.85,11.27,11.27,0,0,0,4.1,4.67A11.14,11.14,0,0,0,137.15,546.56Z"/><path class="a8e8eb94-6b3f-4a63-9db9-db044f06013d" d="M183,557.3a17.63,17.63,0,0,1-7.9-1.75,14,14,0,0,1-5.59-4.84,13,13,0,0,1-2-7.29,14.58,14.58,0,0,1,1.31-6.33,11.54,11.54,0,0,1,3.88-4.54,19.48,19.48,0,0,1,6.46-2.74,37.92,37.92,0,0,1,9-1h13.61l-.79,8.29h-13a17.2,17.2,0,0,0-3.71.35,7.08,7.08,0,0,0-2.7,1.13,5.42,5.42,0,0,0-1.66,1.83,5.07,5.07,0,0,0-.57,2.45,4.4,4.4,0,0,0,.79,2.61,5,5,0,0,0,2.13,1.75,7.46,7.46,0,0,0,3.1.61,13.72,13.72,0,0,0,9-3.32,11.93,11.93,0,0,0,2.88-3.57l2.36,6.19a22.62,22.62,0,0,1-4.45,5.24,22,22,0,0,1-5.68,3.58A16.21,16.21,0,0,1,183,557.3Zm12.65-.88V527.54a7.11,7.11,0,0,0-2.22-5.63,8.73,8.73,0,0,0-6-2,14,14,0,0,0-6.37,1.4,16.39,16.39,0,0,0-5.24,4.36l-7.59-7.33a30.27,30.27,0,0,1,9.38-6.72,27,27,0,0,1,11.3-2.35,25,25,0,0,1,9.73,1.74,13.91,13.91,0,0,1,6.42,5.24,15.88,15.88,0,0,1,2.26,8.81v31.33Z"/><path class="a8e8eb94-6b3f-4a63-9db9-db044f06013d" d="M218.48,575.62V510.26h12l.44,10.29-2.27-.78a9.7,9.7,0,0,1,2.92-5.06,18.55,18.55,0,0,1,6-3.84,19.39,19.39,0,0,1,7.51-1.49,19.09,19.09,0,0,1,10.69,3.06,21.22,21.22,0,0,1,7.37,8.46,27.62,27.62,0,0,1,2.71,12.48,27,27,0,0,1-2.71,12.22,21.32,21.32,0,0,1-7.42,8.51,18.9,18.9,0,0,1-10.64,3.1,19.1,19.1,0,0,1-7.64-1.57,20.36,20.36,0,0,1-6.15-4,10.37,10.37,0,0,1-3.15-5.32l2.88-1.22v30.54Zm23.74-29.06a10.94,10.94,0,0,0,6.07-1.66,11.08,11.08,0,0,0,4-4.67,15.66,15.66,0,0,0,1.44-6.85,15.87,15.87,0,0,0-1.44-6.93,11.08,11.08,0,0,0-4-4.67,10.94,10.94,0,0,0-6.07-1.66,11.14,11.14,0,0,0-6.11,1.66,11.32,11.32,0,0,0-4.1,4.62,15.44,15.44,0,0,0-1.48,7,15.26,15.26,0,0,0,1.48,6.85,11.27,11.27,0,0,0,4.1,4.67A11.14,11.14,0,0,0,242.22,546.56Z"/><path class="a8e8eb94-6b3f-4a63-9db9-db044f06013d" d="M274.25,504.5l-3.84-5.76L285,486.87l6.2,8.55Zm.44,51.92V510.26h12.39v46.16Z"/><path class="a8e8eb94-6b3f-4a63-9db9-db044f06013d" d="M299,556.42V510.26h12l.44,14.83-2.1-3.14a20,20,0,0,1,3.45-6.37,17.53,17.53,0,0,1,5.5-4.58,13.87,13.87,0,0,1,6.67-1.7,19.23,19.23,0,0,1,2.93.21,9.34,9.34,0,0,1,2.31.66l-3.32,13.53a15.32,15.32,0,0,0-2.49-.83,12.41,12.41,0,0,0-3.09-.4,9.72,9.72,0,0,0-3.8.75,9.52,9.52,0,0,0-5.24,5.28,10.93,10.93,0,0,0-.74,4.1v23.82Z"/><path class="a8e8eb94-6b3f-4a63-9db9-db044f06013d" d="M356.72,557.3a25.24,25.24,0,0,1-12.52-3.1,22.88,22.88,0,0,1-8.73-8.51,23.75,23.75,0,0,1-3.19-12.31,24.09,24.09,0,0,1,3.19-12.48,23,23,0,0,1,8.73-8.51,27,27,0,0,1,25.09,0A23.17,23.17,0,0,1,378,520.9a24.19,24.19,0,0,1,3.19,12.48A23.85,23.85,0,0,1,378,545.69a23.1,23.1,0,0,1-8.68,8.51A25.24,25.24,0,0,1,356.72,557.3Zm0-10.74a11,11,0,0,0,6.15-1.74,12.21,12.21,0,0,0,4.19-4.72,13.67,13.67,0,0,0,1.44-6.72,14.33,14.33,0,0,0-1.44-6.93,11.8,11.8,0,0,0-4.19-4.72,11.21,11.21,0,0,0-6.15-1.7,11,11,0,0,0-6.11,1.75,12.41,12.41,0,0,0-4.28,4.71,13.91,13.91,0,0,0-1.48,6.89,13.47,13.47,0,0,0,1.48,6.72,12.51,12.51,0,0,0,4.28,4.72A11,11,0,0,0,356.72,546.56Z"/><path class="a8e8eb94-6b3f-4a63-9db9-db044f06013d" d="M403.76,556.42l-19.38-46.16h13.53l12.3,34.29-2.79.53,12.92-34.82H433.6l-20.33,46.16Z"/><path class="a8e8eb94-6b3f-4a63-9db9-db044f06013d" d="M447.74,576.5l10.12-23.66.18,7.25-22.6-49.83h14.05l11.34,26.79c.41.93.84,2.06,1.31,3.4a27.78,27.78,0,0,1,1.05,3.84l-2.1.88c.41-1,.83-2.13,1.27-3.41s.89-2.65,1.35-4.1l9.69-27.4h14.22l-19.37,46.16-7.94,20.08Zm7.24-72-3.84-5.76,14.58-11.87,6.19,8.55Z"/><path class="a8e8eb94-6b3f-4a63-9db9-db044f06013d" d="M209.63,662a29.43,29.43,0,0,1-11.39-2.09,20.52,20.52,0,0,1-8.16-5.94l7.77-6.63a16.13,16.13,0,0,0,6,4.14,18.25,18.25,0,0,0,6.68,1.27,7.88,7.88,0,0,0,2.27-.31,5.75,5.75,0,0,0,1.83-.87,3.77,3.77,0,0,0,1.18-1.35,4.1,4.1,0,0,0,.39-1.83,3.36,3.36,0,0,0-1.57-3,10.56,10.56,0,0,0-2.57-1.18c-1.26-.44-2.84-.92-4.76-1.44a37,37,0,0,1-7.5-2.66,17.83,17.83,0,0,1-5-3.54,11.23,11.23,0,0,1-2.4-3.84,13.44,13.44,0,0,1-.83-4.8,11.61,11.61,0,0,1,2.45-7.33,16,16,0,0,1,6.5-4.88,22,22,0,0,1,8.86-1.75,27.35,27.35,0,0,1,13.22,3.36,22.45,22.45,0,0,1,5.1,3.8l-6.63,7.42a17.45,17.45,0,0,0-3.58-2.75,24.78,24.78,0,0,0-4-1.92,10.58,10.58,0,0,0-3.67-.75,12,12,0,0,0-2.66.27,5.1,5.1,0,0,0-2,.83,3.53,3.53,0,0,0-1.18,1.35,3.84,3.84,0,0,0-.4,1.74,3.51,3.51,0,0,0,.48,1.79,5.54,5.54,0,0,0,1.36,1.53,16.73,16.73,0,0,0,2.83,1.22c1.31.47,3,1,5.11,1.57a41.32,41.32,0,0,1,7.07,2.53,16,16,0,0,1,4.62,3.23,9,9,0,0,1,2.23,3.62,14.34,14.34,0,0,1,.65,4.41,12.83,12.83,0,0,1-2.4,7.64,15.88,15.88,0,0,1-6.54,5.23A22.54,22.54,0,0,1,209.63,662Zm-4.37-53.85-11.17-10.82,4.45-3.84,12.05,7.07H208l12-7.07,4.45,3.84-11.17,10.82Z"/><path class="a8e8eb94-6b3f-4a63-9db9-db044f06013d" d="M249.77,662a17.53,17.53,0,0,1-7.9-1.75,13.86,13.86,0,0,1-5.58-4.84,12.85,12.85,0,0,1-2-7.29,14.43,14.43,0,0,1,1.31-6.32,11.33,11.33,0,0,1,3.88-4.54,19.4,19.4,0,0,1,6.46-2.75,37.89,37.89,0,0,1,9-1h13.61l-.78,8.29h-13a17.75,17.75,0,0,0-3.7.35,7.2,7.2,0,0,0-2.71,1.13,5.54,5.54,0,0,0-1.66,1.84,5,5,0,0,0-.57,2.44,4.53,4.53,0,0,0,.79,2.62A5,5,0,0,0,249,652a7.39,7.39,0,0,0,3.1.61,13.64,13.64,0,0,0,4.84-.87,13.84,13.84,0,0,0,4.15-2.44A12.1,12.1,0,0,0,264,645.7l2.35,6.2a22.33,22.33,0,0,1-4.45,5.23,21.41,21.41,0,0,1-5.67,3.58A16.29,16.29,0,0,1,249.77,662Zm12.65-.87V632.26a7.13,7.13,0,0,0-2.22-5.63,8.71,8.71,0,0,0-6-2,14,14,0,0,0-6.37,1.39,16.53,16.53,0,0,0-5.24,4.37L235,623.1a30.27,30.27,0,0,1,9.38-6.72A27.05,27.05,0,0,1,255.71,614a24.86,24.86,0,0,1,9.73,1.75,13.82,13.82,0,0,1,6.41,5.23,15.92,15.92,0,0,1,2.27,8.82v31.33Zm-14.13-51.93-3.84-5.76L259,591.59l6.2,8.56Z"/><path class="a8e8eb94-6b3f-4a63-9db9-db044f06013d" d="M285.38,661.15V596.57h12.39v64.58Z"/><path class="a8e8eb94-6b3f-4a63-9db9-db044f06013d" d="M331.28,662a27.17,27.17,0,0,1-13.13-3,22,22,0,0,1-8.73-8.38,23.62,23.62,0,0,1-3.1-12.13,27,27,0,0,1,1.75-9.91,22.74,22.74,0,0,1,4.88-7.72,22.15,22.15,0,0,1,7.47-5,24.52,24.52,0,0,1,9.46-1.79,21.9,21.9,0,0,1,8.69,1.7,20.67,20.67,0,0,1,6.89,4.8,21.6,21.6,0,0,1,4.5,7.29,24.75,24.75,0,0,1,1.48,9.16l-.09,3.84H314.26l-2-7.68h28.88l-1.48,1.57v-1.83a8,8,0,0,0-1.53-4.27,9.91,9.91,0,0,0-8.07-4,13,13,0,0,0-6.59,1.53,9.69,9.69,0,0,0-4,4.36,16.14,16.14,0,0,0-1.36,7,14.38,14.38,0,0,0,1.75,7.2,11.59,11.59,0,0,0,5,4.75,16.8,16.8,0,0,0,7.72,1.66,15.56,15.56,0,0,0,5.58-1,21,21,0,0,0,5.5-3.32l5.85,8.3a26.41,26.41,0,0,1-5.5,3.75,27.93,27.93,0,0,1-6.28,2.35A26.93,26.93,0,0,1,331.28,662Z"/><path class="a8e8eb94-6b3f-4a63-9db9-db044f06013d" d="M360.6,661.15V596.57H373v64.58Zm11.7-13.88L368.89,637l21.65-22h16.32Zm19.55,13.88-16.59-20.69,8.82-7.06,22.69,27.75Z"/></svg>