<svg id="f3d1163a-e098-4b50-bdb0-5096b808d3af" data-name="Vrstva 1" xmlns="http://www.w3.org/2000/svg" viewBox="0 0 595.28 595.28"><defs><style>.afbff352-8454-462c-bd3a-9073d46a8978{fill:#12130f;}</style></defs><path class="afbff352-8454-462c-bd3a-9073d46a8978" d="M544.71,400q0-34.59-.22-69.18c-.19-39.55-19.66-66.54-57.57-77.6-13.29-3.88-27.74-6.15-41.52-5.63-75,2.83-150.07,6.6-225.08,10.39-40.47,2-64.95,26.2-65.63,66.62l-.42,75.4A195.33,195.33,0,0,0,335,594.68c4.79.35,9.62.6,14.5.6,5.3,0,10.53-.28,15.72-.69a193.8,193.8,0,0,0,71.42-19.91,196.62,196.62,0,0,0,57.06-43.15,194.52,194.52,0,0,0,51-129.16C544.71,401.59,544.71,400.81,544.71,400ZM379.05,341.35,446.44,353c2,.35,3.93.83,5.9,1.18,22.07,4,22.41,4,20.15,26.28-1.69,16.7-4.66,34.33-23.39,39.89s-36.67.64-50.58-14.19C381.73,388.24,378,366.35,379.05,341.35ZM183.53,313c3.25-14.63,14.85-26.55,29.93-27.42,53.67-3.1,107.38-5.34,163.93-8.05C345.05,316.13,346.82,356.69,361,400c-3.18-.47-6.14-.58-8.91-1.37-43.61-12.46-87.24-24.82-130.72-37.7a95.12,95.12,0,0,1-22.82-10.62C184.32,341.49,179.88,329.44,183.53,313Zm332.3,87a166.28,166.28,0,0,1-332.54,2.63c0-.82-.06-1.63-.06-2.45,0,0,.08-15,.08-23.56,60.28,18.23,120.67,36.88,181.31,54.65,23.35,6.84,47,14.2,71,16.75,29.59,3.15,49.44-12.45,58.76-41,7.1-21.74,8.11-44.19,4.2-66.65-.53-3-5-7-8.18-7.67-32.66-6.49-65.43-12.38-98.17-18.46-1.56-.29-3.07-.82-6.14-1.65,11.25-20.14,27.41-34.26,49.06-37,16.14-2.06,33.68.9,49.67,5.13,19.49,5.16,31.16,23.35,31.25,43.79q.18,37.74.14,75.49Z"/><path class="afbff352-8454-462c-bd3a-9073d46a8978" d="M135.87,433.1a56.36,56.36,0,1,1,0-112.71h9.32a86.62,86.62,0,0,1,6.36-28.95H135.87a85.31,85.31,0,1,0,0,170.61h18.4a203.33,203.33,0,0,1-6.93-28.95Z"/><path class="afbff352-8454-462c-bd3a-9073d46a8978" d="M307.4,0c6.59,3.71,11.86,9.52,16,16a62.5,62.5,0,0,1,5.35,10.31c.77,1.8,1.38,3.68,2,5.56s1.08,3.84,1.46,5.84a54.44,54.44,0,0,1,1.23,12.46,49,49,0,0,1-2,13.44,60.21,60.21,0,0,1-5.07,12.07c-1.95,3.6-4,6.65-5.77,9.44-3.69,5.57-6.45,9.86-8.44,14.27l-.74,1.66c-.15.44-.37.85-.56,1.32l-.53,1.56-.5,1.75c-.63,2.43-1.11,5.19-1.55,8.07-.8,5.81-1.3,12.16-1.61,18.85s-.47,13.7-1.14,21.44a61.47,61.47,0,0,1-14.66-17.27,70.21,70.21,0,0,1-8.34-21.57,60.63,60.63,0,0,1-1.22-12.42l.15-3.35c.1-1.15.26-2.32.41-3.48s.45-2.43.73-3.64l.91-3.21a65.43,65.43,0,0,1,5.07-11.89,109.36,109.36,0,0,1,6.18-9.71c4.15-5.79,7.45-10,9.58-14,.57-1,1-2,1.5-3a35.84,35.84,0,0,0,1.2-3.46,56.12,56.12,0,0,0,1.77-8,103.74,103.74,0,0,0,.92-18.44c-.11-3.25-.38-6.54-.72-10S308.1,3.73,307.4,0Z"/><path class="afbff352-8454-462c-bd3a-9073d46a8978" d="M349.17,34.16a52.21,52.21,0,0,1,10.1,8.89,72.41,72.41,0,0,1,8,11.07,65.48,65.48,0,0,1,3.22,6.09,65.46,65.46,0,0,1,2.71,6.39c.86,2.17,1.51,4.42,2.22,6.67.54,2.3,1.17,4.59,1.56,7a64,64,0,0,1-1.33,30.34,71.83,71.83,0,0,1-6.07,14.09c-2.34,4.24-4.79,7.9-7,11.31s-4.3,6.5-6.09,9.47a76.56,76.56,0,0,0-4.51,8.74l-.92,2.19c-.2.63-.47,1.22-.7,1.87l-.64,2.11-.57,2.31c-.71,3.18-1.17,6.68-1.61,10.32a229.24,229.24,0,0,0-.84,23.28c0,8.17.41,16.58.34,25.7a80.38,80.38,0,0,1-16.14-21.52,88.5,88.5,0,0,1-9.06-26,73,73,0,0,1-1.21-14.67l.22-3.91c.14-1.34.34-2.69.52-4s.54-2.8.87-4.19l1.09-3.74a78.86,78.86,0,0,1,6-13.93c2.38-4.25,5-8.1,7.4-11.61,5-7,9.17-12.48,11.82-17.84.71-1.35,1.24-2.7,1.83-4.1s1-3,1.39-4.58a61.91,61.91,0,0,0,1.82-10.26,119.28,119.28,0,0,0,.06-22.85c-.35-4-.92-7.94-1.59-12S350.31,38.5,349.17,34.16Z"/></svg>